<?xml version="1.0" standalone="no"?>
<!DOCTYPE svg PUBLIC "-//W3C//DTD SVG 20010904//EN"
 "http://www.w3.org/TR/2001/REC-SVG-20010904/DTD/svg10.dtd">
<svg version="1.0" xmlns="http://www.w3.org/2000/svg"
 width="4500.000000pt" height="4500.000000pt" viewBox="0 0 4500.000000 4500.000000"
 preserveAspectRatio="xMidYMid meet">

<g transform="translate(0.000000,4500.000000) scale(0.100000,-0.100000)"
fill="#000000" stroke="none">
<path d="M16717 21835 c-152 -29 -244 -94 -297 -208 -49 -107 -61 -188 -67
-458 -12 -577 66 -751 363 -804 93 -17 367 -19 469 -5 102 15 205 42 205 53 0
27 -23 137 -29 137 -3 0 -51 -9 -106 -21 -183 -37 -562 -36 -662 2 l-23 9 0
492 c0 304 4 510 11 538 23 98 89 124 314 123 83 -1 200 -7 260 -14 182 -20
167 -25 182 55 7 39 11 71 9 73 -2 2 -34 10 -72 19 -101 23 -454 28 -557 9z"/>
<path d="M21876 21834 c-210 -32 -308 -127 -354 -341 -13 -63 -16 -137 -16
-393 0 -256 3 -330 16 -393 60 -280 197 -357 633 -357 436 0 573 77 633 357
25 119 24 663 -1 783 -49 231 -144 316 -390 349 -108 15 -413 12 -521 -5z
m709 -679 c0 -522 -1 -541 -20 -574 -11 -19 -38 -43 -60 -55 -39 -20 -54 -21
-410 -21 l-370 0 0 540 c0 498 1 543 18 572 22 41 52 61 108 72 24 5 199 8
389 7 l345 -1 0 -540z"/>
<path d="M24985 21839 c-236 -33 -335 -122 -382 -346 -25 -114 -25 -672 -1
-786 60 -280 197 -357 633 -357 436 0 573 77 633 357 25 119 24 663 -1 783
-49 231 -144 316 -390 349 -91 13 -404 13 -492 0z m680 -684 c0 -522 -1 -541
-20 -574 -11 -19 -38 -43 -60 -55 -39 -20 -54 -21 -410 -21 l-370 0 0 540 c0
498 1 543 18 572 22 41 52 61 108 72 24 5 199 8 389 7 l345 -1 0 -540z"/>
<path d="M26805 21840 c-229 -36 -332 -135 -382 -370 -25 -118 -26 -664 -1
-780 47 -220 123 -298 320 -330 81 -13 377 -13 493 0 91 11 184 28 263 49 l42
12 0 369 0 370 -230 0 -230 0 0 -75 0 -75 140 0 140 0 0 -260 0 -260 -370 0
-370 0 0 528 c0 313 4 541 10 561 14 50 47 80 110 98 87 26 424 20 670 -13
l46 -6 11 73 c7 41 10 75 8 77 -27 28 -540 52 -670 32z"/>
<path d="M30644 21835 c-210 -46 -295 -183 -281 -453 7 -134 25 -189 81 -240
77 -71 201 -102 496 -122 85 -6 183 -13 218 -16 l62 -6 0 -243 0 -243 -76 -7
c-118 -11 -534 1 -658 20 -59 9 -110 14 -113 12 -8 -9 -33 -129 -28 -137 2 -4
55 -16 117 -26 144 -24 587 -27 683 -5 206 46 282 124 306 311 6 55 6 107 -1
167 -31 248 -139 310 -575 333 -110 6 -219 13 -242 16 l-43 5 0 243 0 244 23
6 c63 17 609 2 704 -19 19 -4 23 2 37 62 8 38 12 71 8 75 -4 3 -76 14 -160 22
-184 19 -472 20 -558 1z"/>
<path d="M13370 21745 l0 -75 230 0 230 0 0 -645 0 -645 105 0 105 0 0 645 0
645 230 0 230 0 0 75 0 75 -565 0 -565 0 0 -75z"/>
<path d="M14920 21100 l0 -720 490 0 490 0 0 75 0 75 -385 0 -385 0 0 250 0
250 330 0 330 0 0 70 0 70 -330 0 -330 0 0 250 0 250 364 0 364 0 5 23 c3 12
9 46 13 75 l7 52 -482 0 -481 0 0 -720z"/>
<path d="M17840 21100 l0 -720 105 0 105 0 2 318 3 317 380 0 380 0 3 -317 2
-318 105 0 105 0 0 720 0 720 -105 0 -105 0 0 -325 0 -325 -385 0 -385 0 0
325 0 325 -105 0 -105 0 0 -720z"/>
<path d="M19690 21100 l0 -720 105 0 105 0 0 554 c0 362 4 557 10 561 6 3 13
-2 16 -12 14 -48 75 -137 414 -602 l365 -500 103 -1 102 0 0 720 0 720 -105 0
-105 0 0 -560 c0 -308 -4 -560 -8 -560 -4 0 -14 18 -22 41 -8 22 -186 274
-394 560 l-379 519 -104 0 -103 0 0 -720z"/>
<path d="M23390 21100 l0 -720 430 0 430 0 0 75 0 75 -325 0 -325 0 0 645 0
645 -105 0 -105 0 0 -720z"/>
<path d="M28120 21100 l0 -720 105 0 105 0 0 720 0 720 -105 0 -105 0 0 -720z"/>
<path d="M28970 21100 l0 -720 490 0 490 0 0 75 0 75 -385 0 -385 0 0 250 0
250 330 0 330 0 0 70 0 70 -330 0 -330 0 0 250 0 250 364 0 364 0 5 23 c3 12
9 46 13 75 l7 52 -482 0 -481 0 0 -720z"/>
</g>
</svg>
